<svg width="208" height="208" viewBox="0 0 208 208" fill="none" xmlns="http://www.w3.org/2000/svg">
<path d="M69.138 54.5849C79.875 53.0779 91.234 52.3119 102.887 52.3119C115.13 52.3119 126.937 53.1319 137.985 54.7489L138.522 54.8279L144.123 49.2199L142.058 48.8839C129.693 46.8799 116.512 45.8599 102.887 45.8599C89.785 45.8599 77.051 46.8159 65.055 48.6769L62.969 49.0059L68.616 54.6459L69.138 54.5849Z" fill="#36453B"/>
<path d="M156.927 52.3683L156.333 52.2436L150.988 56.6709L152.871 57.0425C175.761 61.5413 190.551 69.0723 190.551 76.2316C190.551 80.6564 184.637 85.4495 174.264 89.4818V88.5174H167.808V91.6984C159.032 94.4088 148.17 96.5605 136.264 97.9498V97.0544H129.82V98.6407C121.066 99.4289 111.875 99.8313 102.498 99.8313C99.3931 99.8313 96.1207 99.7748 92.5371 99.6617V97.0519H86.0853V99.379C72.2182 98.6615 59.5686 97.061 48.4368 94.6183V91.4997H41.9849V93.0769C24.9605 88.5482 14.4518 82.1421 14.4518 76.2266C14.4518 68.916 29.7255 61.2952 53.3749 56.8172L55.2728 56.4605L49.9124 52L49.3212 52.1222C26.5211 56.7723 11.8057 64.2526 8.6803 72.7305H8V150.504C8 159.392 20.3704 167.569 41.9849 172.978V175.745H48.4368V174.427C59.6797 176.775 72.3393 178.328 86.0853 179.028V182H92.5371V179.31C96.1427 179.42 99.4152 179.477 102.498 179.477C111.854 179.477 121.034 179.078 129.82 178.299V179.599H136.271V177.623C149.157 176.172 160.479 173.96 169.945 171.048H174.267V169.608C186.021 165.451 193.501 160.33 196.015 154.742H196.996V76.9641L196.953 76.6365C196.989 76.4968 197 76.3629 197 76.2291C197 66.44 182.396 57.7426 156.927 52.3683ZM14.4518 150.504V87.0391C20.1914 91.6094 29.6255 95.6119 41.9849 98.7031V167.36C24.9564 162.832 14.4518 156.425 14.4518 150.504ZM86.0853 104.743V173.653C72.2182 172.939 59.5686 171.341 48.4368 168.899V100.15C59.6797 102.497 72.3403 104.047 86.0853 104.743ZM190.555 87.0391V150.504C190.555 154.931 184.641 159.727 174.268 163.754V95.3234C181.278 92.8474 186.739 90.0622 190.555 87.0391ZM167.812 97.421V165.971C159.036 168.682 148.174 170.836 136.268 172.228V103.339C148.253 101.991 158.85 100.001 167.812 97.421ZM92.5371 105.026C96.1427 105.136 99.4152 105.196 102.498 105.196C111.854 105.196 121.034 104.8 129.82 104.02V138.466V172.912C121.066 173.707 111.875 174.108 102.498 174.108C99.3931 174.108 96.1207 174.052 92.5371 173.939V105.026Z" fill="#36453B"/>
<path d="M119.704 70.689C118.276 72.11 117.496 74.003 117.496 76.011C117.496 78.022 118.276 79.905 119.704 81.336C121.121 82.753 123.018 83.533 125.026 83.533C127.034 83.533 128.923 82.753 130.337 81.336C132.391 79.282 133.05 76.218 132.087 73.502L201.03 4.566L196.477 0L127.541 68.943C124.803 67.987 121.715 68.682 119.704 70.689Z" fill="#E84F76"/>
<path d="M77.588 81.6011C79.005 83.0221 80.891 83.8061 82.91 83.8061C84.921 83.8061 86.804 83.0261 88.221 81.6011C89.649 80.1731 90.433 78.2871 90.433 76.2791C90.433 74.2681 89.653 72.3851 88.221 70.9611C86.213 68.9461 83.11 68.2591 80.398 69.2071L11.451 0.268066L6.89801 4.83107L75.834 73.7671C74.875 76.4911 75.533 79.5511 77.588 81.6011Z" fill="#E84F76"/>
</svg>
