<svg width="30" height="27" viewBox="0 0 30 27" fill="none" xmlns="http://www.w3.org/2000/svg">
<g clip-path="url(#clip0)">
<path d="M30 13.1207C30 5.87358 23.2852 0 15 0C6.71484 0 0 5.87358 0 13.1207C0 20.3679 6.71484 26.2415 15 26.2415C15.0879 26.2415 15.1758 26.2415 15.2637 26.2363V16.0268H12.041V12.7415H15.2637V10.3223C15.2637 7.51879 17.2207 5.99146 20.0801 5.99146C21.4512 5.99146 22.6289 6.07859 22.9688 6.11959V9.05125H21C19.4473 9.05125 19.1426 9.69704 19.1426 10.6452V12.7363H22.8633L22.377 16.0216H19.1426V25.7341C25.4121 24.1606 30 19.1122 30 13.1207Z" fill="#F5F9E9"/>
</g>
<defs>
<clipPath id="clip0">
<rect width="30" height="26.2415" fill="white"/>
</clipPath>
</defs>
</svg>
