<svg width="30" height="27" viewBox="0 0 30 27" fill="none" xmlns="http://www.w3.org/2000/svg">
<g clip-path="url(#clip0)">
<path d="M17.8711 13.1208C17.8711 14.5078 16.5857 15.6322 15 15.6322C13.4143 15.6322 12.1289 14.5078 12.1289 13.1208C12.1289 11.7337 13.4143 10.6094 15 10.6094C16.5857 10.6094 17.8711 11.7337 17.8711 13.1208Z" fill="#E84F76"/>
<path d="M21.7145 8.67728C21.5765 8.35014 21.3563 8.05404 21.0702 7.81099C20.7923 7.56073 20.454 7.36813 20.0798 7.2474C19.7763 7.1443 19.3204 7.02157 18.4806 6.98814C17.5722 6.9519 17.2998 6.94409 15 6.94409C12.7 6.94409 12.4276 6.9517 11.5194 6.98794C10.6796 7.02157 10.2235 7.1443 9.9202 7.2474C9.54597 7.36813 9.20746 7.56073 8.92982 7.81099C8.64372 8.05404 8.42354 8.34994 8.28529 8.67728C8.16742 8.94275 8.02711 9.34176 7.98889 10.0763C7.94746 10.8707 7.93854 11.109 7.93854 13.1209C7.93854 15.1325 7.94746 15.3708 7.98889 16.1654C8.02711 16.9 8.16742 17.2988 8.28529 17.5642C8.42354 17.8916 8.64349 18.1875 8.9296 18.4305C9.20746 18.6808 9.54575 18.8734 9.91997 18.9941C10.2235 19.0974 10.6796 19.2201 11.5194 19.2536C12.4276 19.2898 12.6997 19.2974 14.9998 19.2974C17.3 19.2974 17.5724 19.2898 18.4804 19.2536C19.3201 19.2201 19.7763 19.0974 20.0798 18.9941C20.831 18.7407 21.4247 18.2213 21.7145 17.5642C21.8324 17.2988 21.9727 16.9 22.0111 16.1654C22.0525 15.3708 22.0612 15.1325 22.0612 13.1209C22.0612 11.109 22.0525 10.8707 22.0111 10.0763C21.9729 9.34176 21.8326 8.94275 21.7145 8.67728ZM15 16.9894C12.5571 16.9894 10.5769 15.2575 10.5769 13.1207C10.5769 10.9839 12.5571 9.25187 15 9.25187C17.4426 9.25187 19.4229 10.9839 19.4229 13.1207C19.4229 15.2575 17.4426 16.9894 15 16.9894ZM19.5978 10.003C19.0269 10.003 18.5641 9.59823 18.5641 9.09891C18.5641 8.5996 19.0269 8.19478 19.5978 8.19478C20.1686 8.19478 20.6314 8.5996 20.6314 9.09891C20.6312 9.59823 20.1686 10.003 19.5978 10.003Z" fill="#E84F76"/>
<path d="M15 0C6.717 0 0 5.87546 0 13.1207C0 20.366 6.717 26.2415 15 26.2415C23.283 26.2415 30 20.366 30 13.1207C30 5.87546 23.283 0 15 0ZM23.5613 16.2269C23.5197 17.029 23.3739 17.5765 23.161 18.0558C22.7135 19.0679 21.7989 19.8679 20.6419 20.2593C20.0942 20.4455 19.468 20.5728 18.5513 20.6094C17.6328 20.6461 17.3394 20.6549 15.0002 20.6549C12.6608 20.6549 12.3676 20.6461 11.4489 20.6094C10.5322 20.5728 9.90601 20.4455 9.35829 20.2593C8.78334 20.0701 8.26286 19.7736 7.83257 19.3902C7.39449 19.014 7.05551 18.5585 6.83922 18.0558C6.62636 17.5767 6.48056 17.029 6.4389 16.2271C6.39656 15.4235 6.38672 15.1668 6.38672 13.1207C6.38672 11.0746 6.39656 10.818 6.43867 10.0145C6.48033 9.2125 6.6259 8.66493 6.83876 8.18564C7.05505 7.68292 7.39426 7.22745 7.83257 6.85126C8.26263 6.46787 8.78334 6.17136 9.35806 5.98217C9.90601 5.79598 10.532 5.66864 11.4489 5.63201C12.3674 5.59537 12.6608 5.58656 15 5.58656C17.3392 5.58656 17.6326 5.59537 18.5511 5.63221C19.468 5.66864 20.094 5.79598 20.6419 5.98197C21.2167 6.17116 21.7374 6.46787 22.1677 6.85126C22.6057 7.22765 22.9449 7.68292 23.161 8.18564C23.3741 8.66493 23.5197 9.2125 23.5616 10.0145C23.6034 10.818 23.6133 11.0746 23.6133 13.1207C23.6133 15.1668 23.6034 15.4235 23.5613 16.2269Z" fill="#E84F76"/>
</g>
<defs>
<clipPath id="clip0">
<rect width="30" height="26.2415" fill="white"/>
</clipPath>
</defs>
</svg>
