<svg width="243" height="233" viewBox="0 0 243 233" fill="none" xmlns="http://www.w3.org/2000/svg">
<g clip-path="url(#clip0)">
<path d="M230.538 0H12.4615C5.57922 0 0 4.94396 0 11.0427V221.957C0 228.056 5.57922 233 12.4615 233H230.538C237.421 233 243 228.056 243 221.957V11.0427C243 4.94396 237.421 0 230.538 0Z" fill="#F5F9E9" fill-opacity="0.77" stroke="#36453B" stroke-width="31"/>
<path d="M150.936 47.6C153.875 49.3013 156.04 51.6987 157.432 54.792C158.979 57.7307 159.752 60.9787 159.752 64.536C159.752 67.6293 159.133 70.7227 157.896 73.816C156.659 76.9093 155.035 79.4613 153.024 81.472C150.704 81.3173 147.224 81.24 142.584 81.24C139.645 81.24 134.309 81.3947 126.576 81.704L114.28 81.936C115.053 77.4507 113.197 87.8907 108.712 113.256L104.072 139.704C102.525 148.829 100.901 160.816 99.2 175.664C97.6533 188.347 96.2613 197.24 95.024 202.344C93.9413 207.448 92.1627 210 89.688 210C86.1307 210 81.8773 208.763 76.928 206.288C72.1333 203.659 67.88 200.565 64.168 197.008C60.6107 193.451 58.832 190.512 58.832 188.192C58.6773 184.635 60.5333 174.117 64.4 156.64C67.3387 141.947 69.4267 131.043 70.664 123.928C70.664 124.237 71.9013 117.819 74.376 104.672C76.5413 92.9173 77.856 85.7253 78.32 83.096L42.128 87.504C39.1893 85.9573 36.792 83.7147 34.936 80.776C33.2347 77.6827 32.384 74.3573 32.384 70.8C32.384 64.6133 34.7813 59.1227 39.576 54.328C48.392 53.0907 59.3733 52.3173 72.52 52.008C85.8213 51.544 93.7093 51.2347 96.184 51.08C112.424 50.616 124.256 50.2293 131.68 49.92C139.259 49.456 145.677 48.6827 150.936 47.6Z" fill="#36453B"/>
<path d="M209.771 209.029L209.786 201.184C209.798 195.17 209.282 191.574 208.307 188.696C205.513 180.454 197.682 173.705 187.353 173.685C175.325 173.661 166.809 182.796 165.222 192.01C164.892 193.839 164.69 196.846 164.682 201.095L164.666 208.939L209.771 209.029ZM199.007 197.894L175.474 197.848C175.491 189.35 181.056 184.785 187.266 184.797C193.476 184.81 199.024 189.396 199.007 197.894ZM192.765 147.708C190.223 143.846 186.305 141.616 181.141 141.605C172.316 141.588 166.028 148.047 165.03 156.935C164.896 158.308 164.763 159.746 164.752 165.106L164.738 172.297L209.843 172.386L209.865 161.273L197.772 161.249C197.782 156.02 201.907 152.432 206.941 152.442L209.882 152.448L209.904 141.335L206.963 141.33C200.556 141.317 195.78 143.595 192.765 147.708ZM175.219 161.205C175.228 156.629 176.87 152.71 181.446 152.719C186.022 152.728 187.322 156.653 187.313 161.228L175.219 161.205ZM210.592 123.81C210.608 116.097 205.395 107.588 192.975 107.564L164.866 107.508L164.844 118.621L192.953 118.676C197.202 118.685 199.814 119.997 199.806 123.789C199.799 127.58 197.182 128.882 192.933 128.874L164.824 128.818L164.802 139.931L192.911 139.987C205.331 140.011 210.577 131.524 210.592 123.81ZM209.975 105.612L209.996 94.4993L176.004 94.432C176.209 90.1833 179.225 85.2866 185.501 85.299L210.014 85.3476L210.034 75.15L185.521 75.1014C179.245 75.089 176.248 70.1803 176.06 65.9309L210.052 65.9983L210.074 54.8855L164.969 54.7961L164.948 65.9089C164.936 71.9882 168.193 77.878 171.456 80.1724C168.184 82.4538 164.903 88.3306 164.892 94.41L164.87 105.523L209.975 105.612ZM210.078 53.0117L210.107 38.4343C210.122 30.8515 204.578 24.6304 196.276 24.6139C192.419 24.6063 188.821 25.9065 186.528 28.5822C184.431 30.9967 183.378 34.5899 182.062 39.0325C181.47 41.0577 180.226 41.9705 178.592 41.9672C177.023 41.9641 175.782 41.1118 175.787 38.8239L175.804 30.1298L165.018 30.1084L165.006 36.1878C164.997 40.6983 165.126 41.9405 165.385 43.0523C166.745 49.592 172.098 53.0672 178.504 53.0799C182.165 53.0871 185.37 51.9822 187.859 49.5685C190.151 47.3504 191.007 44.672 192.979 38.7926C193.505 37.2248 194.685 35.7236 196.45 35.7271C198.019 35.7302 199.324 36.9748 199.318 39.7204L199.292 52.9903L210.078 53.0117Z" fill="#36453B"/>
</g>
<defs>
<clipPath id="clip0">
<rect width="243" height="233" fill="white"/>
</clipPath>
</defs>
</svg>
