<svg width="220" height="220" viewBox="0 0 220 220" fill="none" xmlns="http://www.w3.org/2000/svg">
<g clip-path="url(#clip0)">
<path d="M208.718 0H11.2821C5.05115 0 0 4.66812 0 10.4265V209.573C0 215.332 5.05115 220 11.2821 220H208.718C214.949 220 220 215.332 220 209.573V10.4265C220 4.66812 214.949 0 208.718 0Z" fill="#F5F9E9" fill-opacity="0.77" stroke="#36453B" stroke-width="31"/>
<path d="M141.936 34.6C144.875 36.3013 147.04 38.6987 148.432 41.792C149.979 44.7307 150.752 47.9787 150.752 51.536C150.752 54.6293 150.133 57.7227 148.896 60.816C147.659 63.9093 146.035 66.4613 144.024 68.472C141.704 68.3173 138.224 68.24 133.584 68.24C130.645 68.24 125.309 68.3947 117.576 68.704L105.28 68.936C106.053 64.4507 104.197 74.8907 99.712 100.256L95.072 126.704C93.5253 135.829 91.9013 147.816 90.2 162.664C88.6533 175.347 87.2613 184.24 86.024 189.344C84.9413 194.448 83.1627 197 80.688 197C77.1307 197 72.8773 195.763 67.928 193.288C63.1333 190.659 58.88 187.565 55.168 184.008C51.6107 180.451 49.832 177.512 49.832 175.192C49.6773 171.635 51.5333 161.117 55.4 143.64C58.3387 128.947 60.4267 118.043 61.664 110.928C61.664 111.237 62.9013 104.819 65.376 91.672C67.5413 79.9173 68.856 72.7253 69.32 70.096L33.128 74.504C30.1893 72.9573 27.792 70.7147 25.936 67.776C24.2347 64.6827 23.384 61.3573 23.384 57.8C23.384 51.6133 25.7813 46.1227 30.576 41.328C39.392 40.0907 50.3733 39.3173 63.52 39.008C76.8213 38.544 84.7093 38.2347 87.184 38.08C103.424 37.616 115.256 37.2293 122.68 36.92C130.259 36.456 136.677 35.6827 141.936 34.6Z" fill="#36453B"/>
<path d="M196.002 196.368L196.016 188.928C196.026 183.224 195.537 179.813 194.612 177.083C191.961 169.266 184.533 162.864 174.737 162.844C163.329 162.82 155.253 171.484 153.748 180.223C153.435 181.958 153.243 184.81 153.236 188.84L153.222 196.28L196.002 196.368ZM185.792 185.807L163.472 185.761C163.487 177.701 168.765 173.372 174.655 173.384C180.545 173.396 185.807 177.747 185.792 185.807ZM179.867 138.207C177.456 134.544 173.74 132.428 168.842 132.418C160.472 132.401 154.509 138.526 153.563 146.956C153.436 148.258 153.31 149.622 153.3 154.706L153.287 161.526L196.067 161.614L196.087 151.074L184.617 151.051C184.626 146.091 188.539 142.689 193.313 142.698L196.103 142.704L196.123 132.164L193.333 132.159C187.257 132.146 182.727 134.307 179.867 138.207ZM163.227 151.006C163.235 146.666 164.792 142.95 169.132 142.959C173.472 142.967 174.705 146.69 174.697 151.03L163.227 151.006ZM196.774 115.542C196.788 108.226 191.843 100.156 180.063 100.132L153.403 100.077L153.383 110.617L180.043 110.672C184.073 110.68 186.551 111.925 186.544 115.521C186.537 119.117 184.055 120.352 180.025 120.344L153.365 120.289L153.345 130.829L180.005 130.884C191.785 130.908 196.76 122.858 196.774 115.542ZM196.187 98.2823L196.207 87.7423L163.967 87.6757C164.16 83.6461 167.021 79.002 172.973 79.0143L196.223 79.0623L196.241 69.3904L172.991 69.3423C167.039 69.33 164.196 64.6741 164.018 60.6437L196.258 60.7104L196.278 50.1704L153.498 50.082L153.478 60.622C153.467 66.388 156.556 71.9743 159.652 74.1508C156.548 76.3143 153.438 81.8879 153.427 87.6539L153.407 98.1939L196.187 98.2823ZM196.281 48.3932L196.307 34.5672C196.321 27.3753 191.062 21.4744 183.188 21.4581C179.53 21.4505 176.117 22.6835 173.943 25.221C171.954 27.5109 170.956 30.9188 169.708 35.1323C169.146 37.0531 167.967 37.9187 166.417 37.9155C164.929 37.9124 163.752 37.104 163.756 34.934L163.772 26.688L153.542 26.6669L153.531 32.4328C153.523 36.7108 153.645 37.8891 153.891 38.9436C155.181 45.1463 160.259 48.4428 166.335 48.4553C169.807 48.4625 172.847 47.4148 175.207 45.1257C177.381 43.0222 178.192 40.4818 180.062 34.9057C180.561 33.4187 181.68 31.995 183.354 31.9985C184.842 32.0015 186.08 33.1821 186.075 35.7861L186.051 48.3721L196.281 48.3932Z" fill="#36453B"/>
</g>
<defs>
<clipPath id="clip0">
<rect width="220" height="220" fill="white"/>
</clipPath>
</defs>
</svg>
