<svg width="55" height="55" viewBox="0 0 55 55" fill="none" xmlns="http://www.w3.org/2000/svg">
<g clip-path="url(#clip0)">
<path d="M27.5 55C12.3122 55 -1.07288e-06 42.6878 -1.07288e-06 27.5C-1.07288e-06 12.3122 12.3122 0 27.5 0C42.6878 0 55 12.3122 55 27.5C55 42.6878 42.6878 55 27.5 55Z" fill="#515751"/>
<path d="M30.2292 27.7954C26.8256 24.3923 23.4222 20.9888 20.0195 17.5857C17.0512 14.6177 21.6752 10.0288 24.6502 13.0041C28.8171 17.171 32.9836 21.3375 37.1505 25.5044C38.4098 26.7633 38.3751 28.861 37.1258 30.1108C32.9589 34.2777 28.7923 38.4446 24.6254 42.6115C21.6571 45.5798 17.0681 40.9558 20.0438 37.9803C23.4395 34.5851 26.8343 31.1903 30.2292 27.7954Z" fill="#F5F9E9"/>
</g>
<defs>
<clipPath id="clip0">
<rect width="55" height="55" fill="white" transform="matrix(-1 0 0 1 55 0)"/>
</clipPath>
</defs>
</svg>
