<svg width="55" height="55" viewBox="0 0 55 55" fill="none" xmlns="http://www.w3.org/2000/svg">
<path d="M27.5 0C42.6878 0 55 12.3122 55 27.5C55 42.6878 42.6878 55 27.5 55C12.3122 55 0 42.6878 0 27.5C0 12.3122 12.3122 0 27.5 0Z" fill="#515751"/>
<path d="M24.7708 27.2046C28.1744 30.6077 31.5778 34.0112 34.9805 37.4143C37.9488 40.3823 33.3248 44.9712 30.3498 41.9959C26.1829 37.829 22.0164 33.6625 17.8495 29.4956C16.5902 28.2367 16.6249 26.139 17.8742 24.8892C22.0411 20.7223 26.2077 16.5554 30.3746 12.3886C33.3429 9.42019 37.9319 14.0443 34.9562 17.0197C31.5605 20.4149 28.1657 23.8097 24.7708 27.2046Z" fill="#F5F9E9"/>
</svg>
