<svg width="512" height="178" viewBox="0 0 512 178" fill="none" xmlns="http://www.w3.org/2000/svg">
<path d="M88.0618 177.062C39.5043 177.062 0 137.556 0 89C0 74.6032 3.5541 60.3168 10.2778 47.6806C12.9527 42.6566 19.194 40.7507 24.22 43.4235C29.245 46.0983 31.1519 52.3396 28.4771 57.3657C23.3346 67.0291 20.6154 77.9697 20.6154 89C20.6154 126.19 50.8716 156.446 88.0618 156.446C125.252 156.446 155.508 126.19 155.508 89C155.508 51.8098 125.252 21.5536 88.0618 21.5536C82.3699 21.5536 77.7541 16.9378 77.7541 11.2459C77.7541 5.55402 82.3699 0.938232 88.0618 0.938232C136.618 0.938232 176.124 40.4425 176.124 89C176.124 137.558 136.618 177.062 88.0618 177.062Z" fill="#E84F76"/>
<path d="M209.513 151.471V24.948C209.513 21.0033 212.767 17.1626 217.689 17.1626H256.23C286.985 17.1626 302.362 30.7234 302.362 57.844C302.362 79.55 292.072 92.2119 276.863 96.7752L302.362 144.075C303.01 144.854 303.336 145.895 303.336 147.189C303.336 156.57 285.543 167.448 278.809 154.392L251.17 100.667H234.819V151.471C234.818 162.136 209.513 162.057 209.513 151.471V151.471ZM234.818 80.8137H256.229C270.113 80.8137 277.057 73.9374 277.057 60.1808C277.057 46.2963 270.113 39.353 256.229 39.353H234.818V80.8137Z" fill="#36453B"/>
<path d="M320.462 151.471V25.1438C320.462 19.7467 326.236 17.1636 331.557 17.1636H400.854C411.65 17.1636 411.343 39.353 400.854 39.353H345.769V78.2831H375.355C385.829 78.2831 386.084 98.1378 375.355 98.1378H345.769V137.263H400.854C411.397 137.263 411.598 159.453 400.854 159.453H331.557C326.22 159.453 320.462 156.864 320.462 151.471V151.471Z" fill="#36453B"/>
<path d="M420.708 116.045V61.7382C420.708 46.4271 424.859 35.168 433.166 27.966C441.469 20.764 452.305 17.1636 465.673 17.1636C490.4 17.1636 511.999 29.808 511.999 54.1466C511.999 63.1174 509.014 66.6045 499.346 66.6045C491.04 66.6045 486.822 63.9471 486.696 58.6242C485.719 46.0519 479.903 39.354 466.451 39.354C452.825 39.354 446.012 46.8178 446.012 61.7392V116.047C446.012 130.972 452.953 138.433 466.841 138.433C478.945 138.433 485.944 133.241 486.696 117.605C487.084 112.286 491.235 109.625 499.153 109.625C508.923 109.625 512 113.211 512 122.083C512 147.373 490.699 160.623 465.478 160.623C452.11 160.623 441.308 157.023 433.07 149.821C424.828 142.616 420.708 131.36 420.708 116.045V116.045Z" fill="#36453B"/>
<path d="M47.3608 33.0601C41.6689 33.0601 37.0531 28.4577 37.0531 22.7658V22.7411C37.0531 17.0491 41.6689 12.4333 47.3608 12.4333C53.0527 12.4333 57.6685 17.0491 57.6685 22.7411C57.6685 28.433 53.0537 33.0601 47.3608 33.0601Z" fill="#36453B"/>
</svg>
