<svg width="405" height="395" viewBox="0 0 405 395" fill="none" xmlns="http://www.w3.org/2000/svg">
<g clip-path="url(#clip0)">
<rect width="405" height="395" fill="#F5F9E9"/>
<path d="M396.989 118.487C379.305 74.5986 324.828 48.2794 278.688 65.6964C226.021 85.5768 243.483 167.28 195.645 183.801C169.803 192.726 131.602 159.389 105.494 154.277C57.3835 144.857 13.8301 177.965 3.10554 223.814C-7.83579 270.589 9.71289 333.064 62.4056 345.759C125.173 360.882 157.868 305.851 210.522 290.049C264.557 273.834 324.637 312.131 369.369 265.535C402.418 231.11 414.501 161.946 396.989 118.487V118.487Z" fill="url(#paint0_linear)"/>
<path opacity="0.1" d="M377.193 137.782C377.193 107.31 351.866 82.6074 320.622 82.6074C296.417 82.6074 275.773 97.4392 267.695 118.289H63.1333C54.3957 118.289 47.313 125.196 47.313 133.718V304.533C47.313 313.054 54.3957 319.962 63.1333 319.962H341.867C350.605 319.962 357.688 313.054 357.688 304.533V179.444C369.63 169.328 377.193 154.421 377.193 137.782V137.782Z" fill="#2626BC"/>
<path d="M341.867 300.675H63.1319C54.3943 300.675 47.3116 293.767 47.3116 285.245V114.431C47.3116 105.909 54.3943 99.0015 63.1319 99.0015H341.866C350.604 99.0015 357.686 105.909 357.686 114.431V285.245C357.687 293.767 350.604 300.675 341.867 300.675Z" fill="#36453B"/>
<path d="M357.689 114.435V179.625C347.762 188.027 334.805 193.119 320.622 193.119C289.377 193.119 264.049 168.416 264.049 137.95C264.049 122.751 270.353 108.98 280.549 99.0051H341.869C350.602 99.0051 357.689 105.91 357.689 114.435Z" fill="#F5F9E9"/>
<path d="M357.689 114.434V133.883L216.96 239.322C212.831 242.416 207.697 244.113 202.5 244.113C197.303 244.113 192.169 242.416 188.04 239.322L47.3106 133.883V114.434C47.3106 105.909 54.3981 99.0046 63.1309 99.0046H341.869C350.602 99.0046 357.689 105.909 357.689 114.434V114.434Z" fill="#F5F9E9"/>
<path d="M207.319 172.589L357.688 285.245C357.688 293.767 350.605 300.675 341.867 300.675H63.1325C54.3949 300.675 47.3122 293.767 47.3122 285.245L197.681 172.589C200.523 170.46 204.477 170.46 207.319 172.589V172.589Z" fill="#36453B"/>
<path d="M256.677 209.567L216.96 239.323C212.831 242.416 207.697 244.114 202.5 244.114C197.303 244.114 192.169 242.416 188.04 239.323L148.323 209.567L197.683 172.589C200.522 170.46 204.478 170.46 207.317 172.589L256.677 209.567Z" fill="#F5F9E9"/>
<path d="M197.68 227.088L47.3116 114.431C47.3116 105.909 54.3943 99.0015 63.1319 99.0015H341.866C350.604 99.0015 357.686 105.909 357.686 114.431L207.318 227.088C204.476 229.216 200.523 229.216 197.68 227.088Z" fill="#36453B"/>
<path d="M293.426 280.145H268.007C265.823 280.145 264.052 278.418 264.052 276.288V259.196C264.052 257.066 265.823 255.339 268.007 255.339H293.426C295.61 255.339 297.381 257.066 297.381 259.196V276.288C297.381 278.419 295.61 280.145 293.426 280.145Z" fill="#E84F76"/>
<path d="M246.695 264.421H224.678C222.494 264.421 220.723 262.694 220.723 260.563C220.723 258.433 222.494 256.706 224.678 256.706H246.695C248.88 256.706 250.65 258.433 250.65 260.563C250.65 262.694 248.88 264.421 246.695 264.421Z" fill="#F5F9E9"/>
<path d="M246.695 280.145H169.307C167.123 280.145 165.352 278.418 165.352 276.288C165.352 274.158 167.123 272.43 169.307 272.43H246.695C248.88 272.43 250.65 274.158 250.65 276.288C250.65 278.418 248.88 280.145 246.695 280.145Z" fill="#F5F9E9"/>
<path d="M320.622 173.669C351.866 173.669 377.193 148.966 377.193 118.495C377.193 88.0227 351.866 63.3203 320.622 63.3203C289.379 63.3203 264.051 88.0227 264.051 118.495C264.051 148.966 289.379 173.669 320.622 173.669Z" fill="#E84F76"/>
<path d="M320.622 177.526C353.996 177.526 381.148 151.045 381.148 118.495C381.148 85.9441 353.997 59.4629 320.622 59.4629C287.248 59.4629 260.096 85.9441 260.096 118.495C260.096 137.43 269.295 154.299 283.552 165.108L204.909 224.028C203.493 225.091 201.51 225.092 200.091 224.028L51.4097 112.637C52.2964 107.105 57.2165 102.859 63.1325 102.859H244.565C246.749 102.859 248.52 101.132 248.52 99.0015C248.52 96.8714 246.749 95.144 244.565 95.144H63.1333C52.2292 95.144 43.3579 103.796 43.3579 114.431V285.246C43.3579 295.88 52.2292 304.533 63.1333 304.533H341.867C352.772 304.533 361.643 295.88 361.643 285.246V183.302C361.643 181.171 359.873 179.444 357.688 179.444C355.503 179.444 353.733 181.171 353.733 183.302V277.418L250.182 199.838L290.477 169.65C299.36 174.649 309.65 177.526 320.622 177.526ZM154.818 199.838L51.2681 277.418V122.259L154.818 199.838ZM353.576 287.03C352.692 292.565 347.786 296.818 341.867 296.818H63.1333C57.2141 296.818 52.3083 292.565 51.4239 287.03L161.311 204.703L195.272 230.146C197.4 231.74 199.951 232.538 202.501 232.538C205.051 232.538 207.6 231.741 209.729 230.146L243.691 204.702L353.576 287.03ZM268.006 118.495C268.006 90.1988 291.609 67.1777 320.622 67.1777C349.635 67.1777 373.238 90.1981 373.238 118.495C373.238 146.791 349.635 169.811 320.622 169.811C291.609 169.811 268.006 146.79 268.006 118.495Z" fill="#F5F9E9"/>
<path d="M295.93 99.6789L304.003 118.495L295.93 137.31C294.559 140.506 297.866 143.708 301.132 142.347L349.873 122.042C353.075 120.708 353.075 116.281 349.873 114.947L301.132 94.6426C297.866 93.2817 294.559 96.4834 295.93 99.6789V99.6789Z" fill="#F5F9E9"/>
<path d="M322.419 122.096L298.115 132.225L304.002 118.493L298.108 104.76L322.419 114.89C325.451 116.155 325.451 120.838 322.419 122.096V122.096Z" fill="#FFDBED"/>
<path d="M261.69 63.0078C258.752 63.0078 255.815 61.9177 253.58 59.7367C249.107 55.3747 249.107 48.2779 253.58 43.9167C258.05 39.5562 265.328 39.5547 269.8 43.9167C274.272 48.2786 274.272 55.3755 269.8 59.7367C267.564 61.9177 264.627 63.0078 261.69 63.0078ZM261.69 48.3565C260.779 48.3565 259.867 48.6945 259.172 49.3718C257.785 50.725 257.785 52.9276 259.172 54.2815C260.561 55.6347 262.817 55.6355 264.206 54.2815C265.594 52.9284 265.594 50.7258 264.206 49.3718C263.513 48.6952 262.601 48.3565 261.69 48.3565V48.3565Z" fill="#596869"/>
<path d="M172.867 354.354C169.93 354.354 166.992 353.263 164.757 351.083C160.284 346.721 160.284 339.624 164.757 335.263C169.227 330.902 176.506 330.902 180.977 335.263C185.45 339.625 185.45 346.722 180.977 351.083C178.742 353.264 175.804 354.354 172.867 354.354V354.354ZM172.867 339.703C171.956 339.703 171.044 340.041 170.349 340.718C168.962 342.071 168.962 344.274 170.349 345.628C171.738 346.982 173.995 346.982 175.384 345.628C176.771 344.275 176.771 342.072 175.384 340.718C174.69 340.042 173.778 339.703 172.867 339.703V339.703Z" fill="#596869"/>
<path d="M233.176 72.9414C232.164 72.9414 231.151 72.5649 230.379 71.8119L225.661 67.2108L220.943 71.8119C219.399 73.3178 216.893 73.3178 215.35 71.8119C213.805 70.3052 213.805 67.8627 215.35 66.3567L222.865 59.0276C224.408 57.5217 226.914 57.5217 228.457 59.0276L235.972 66.3567C237.517 67.8635 237.517 70.306 235.972 71.8119C235.201 72.5641 234.188 72.9414 233.176 72.9414Z" fill="#E84F76"/>
<path d="M347.846 339.701C346.834 339.701 345.821 339.325 345.05 338.572L340.331 333.971L335.613 338.572C334.07 340.078 331.564 340.078 330.02 338.572C328.476 337.065 328.476 334.623 330.02 333.117L337.535 325.788C339.078 324.282 341.584 324.282 343.128 325.788L350.642 333.117C352.187 334.623 352.187 337.066 350.642 338.572C349.871 339.324 348.858 339.701 347.846 339.701Z" fill="#E84F76"/>
<path d="M141.5 343.366C140.488 343.366 139.475 342.989 138.704 342.237L133.985 337.635L129.267 342.237C127.724 343.742 125.218 343.742 123.675 342.237C122.13 340.73 122.13 338.287 123.675 336.781L131.189 329.452C132.732 327.946 135.238 327.946 136.782 329.452L144.296 336.781C145.841 338.288 145.841 340.731 144.296 342.237C143.524 342.989 142.512 343.366 141.5 343.366Z" fill="#36453B"/>
</g>
<defs>
<linearGradient id="paint0_linear" x1="341.983" y1="387.783" x2="162.74" y2="144.312" gradientUnits="userSpaceOnUse">
<stop stop-color="#596869"/>
<stop offset="0.5834" stop-color="#F5F9E9"/>
<stop offset="0.997" stop-color="#E84F76"/>
</linearGradient>
<clipPath id="clip0">
<rect width="405" height="395" fill="white"/>
</clipPath>
</defs>
</svg>
