<svg width="496" height="496" viewBox="0 0 496 496" fill="none" xmlns="http://www.w3.org/2000/svg">
<path d="M412.432 416H83.568L33.568 496H462.432L412.432 416ZM62.432 480L87.96 439.152L113.488 480H62.432ZM102.36 432H153.552L127.936 472.912L102.36 432ZM142.368 480L167.96 439.136L193.512 480H142.368ZM182.36 432H233.576L207.952 472.92L182.36 432ZM222.4 480L247.976 439.152L273.544 480H222.4ZM262.368 432H313.584L287.992 472.92L262.368 432ZM302.432 480L327.976 439.152L353.552 480H302.432ZM342.376 432H393.568L368 472.912L342.376 432ZM408 439.096L433.568 480H382.44L408 439.096Z" fill="#36453B"/>
<path d="M154.344 90.344L144 100.688L111.592 68.272C103.664 60.36 93.136 56 81.944 56C75.792 56 70 57.4 64.736 59.792C59.064 47.024 56 33.128 56 18.744V16H96V0H0V16H40V18.744C40 36.536 44.064 53.656 51.52 69.248C44.424 76.76 40 86.816 40 97.936C40 109.144 44.36 119.68 52.288 127.592L84.688 160L74.344 170.344L85.656 181.656L165.656 101.656L154.344 90.344ZM96 148.688L63.592 116.272C58.696 111.384 56 104.872 56 97.936C56 92.896 57.504 88.232 60 84.248C64.176 90.424 68.952 96.264 74.344 101.656L85.656 90.344C80.592 85.28 76.176 79.752 72.352 73.888C75.328 72.696 78.544 72 81.944 72C88.872 72 95.384 74.696 100.288 79.592L132.688 112L96 148.688Z" fill="#36453B"/>
<path d="M400 0V16H440V18.744C440 33.128 436.936 47.024 431.264 59.792C426 57.4 420.208 56 414.056 56C402.864 56 392.328 60.36 384.4 68.28L352 100.688L341.656 90.344L330.344 101.656L410.344 181.656L421.656 170.344L411.312 160L443.712 127.6C451.64 119.68 456 109.152 456 97.936C456 86.816 451.576 76.752 444.48 69.24C451.936 53.656 456 36.528 456 18.744V16H496V0H400ZM432.4 116.28L400 148.688L363.312 112L395.712 79.6C400.616 74.696 407.136 72 414.056 72C417.448 72 420.672 72.696 423.648 73.888C419.824 79.752 415.408 85.28 410.344 90.344L421.656 101.656C427.048 96.264 431.824 90.424 436 84.248C438.496 88.232 440 92.904 440 97.936C440 104.872 437.304 111.384 432.4 116.28Z" fill="#36453B"/>
<path d="M254.648 232.688L342.008 133.28L329.992 122.72L97.9919 386.72L110.008 397.28L143.288 359.408L152.256 394.008L167.744 389.992L156.048 344.888L244 244.808L331.952 344.888L320.256 389.992L335.744 394.008L344.712 359.408L377.992 397.28L390.008 386.72L254.648 232.688Z" fill="#36453B"/>
<path d="M376.26 173.97L340.382 312.333L355.87 316.349L391.748 177.986L376.26 173.97Z" fill="black"/>
<path d="M158.018 122.719L145.999 133.281L221.87 219.622L233.889 209.061L158.018 122.719Z" fill="black"/>
<path d="M111.758 173.98L96.2701 177.996L132.86 319.109L148.348 315.093L111.758 173.98Z" fill="black"/>
<path d="M464 288H448V304H464V288Z" fill="#E84F76"/>
<path d="M433.346 294.098L422.032 305.412L433.346 316.725L444.659 305.412L433.346 294.098Z" fill="#E84F76"/>
<path d="M432 320H416V336H432V320Z" fill="#E84F76"/>
<path d="M433.351 339.304L422.038 350.617L433.351 361.931L444.665 350.617L433.351 339.304Z" fill="#E84F76"/>
<path d="M464 352H448V368H464V352Z" fill="#E84F76"/>
<path d="M478.615 339.294L467.303 350.609L478.618 361.921L489.93 350.606L478.615 339.294Z" fill="#E84F76"/>
<path d="M496 320H480V336H496V320Z" fill="#E84F76"/>
<path d="M478.6 294.092L467.286 305.406L478.6 316.719L489.913 305.406L478.6 294.092Z" fill="#E84F76"/>
<path d="M256 0H240V16H256V0Z" fill="#E84F76"/>
<path d="M225.36 6.07738L214.048 17.3926L225.364 28.7046L236.676 17.3894L225.36 6.07738Z" fill="#E84F76"/>
<path d="M224 32H208V48H224V32Z" fill="#E84F76"/>
<path d="M225.355 51.3281L214.04 62.6401L225.352 73.9553L236.667 62.6433L225.355 51.3281Z" fill="#E84F76"/>
<path d="M256 64H240V80H256V64Z" fill="#E84F76"/>
<path d="M270.625 51.3367L259.313 62.6519L270.629 73.9639L281.941 62.6487L270.625 51.3367Z" fill="#E84F76"/>
<path d="M288 32H272V48H288V32Z" fill="#E84F76"/>
<path d="M270.62 6.06433L259.306 17.3779L270.62 28.6915L281.933 17.3779L270.62 6.06433Z" fill="#E84F76"/>
<path d="M48 296H32V312H48V296Z" fill="#E84F76"/>
<path d="M17.3556 302.02L6.04358 313.335L17.3588 324.647L28.6708 313.332L17.3556 302.02Z" fill="#E84F76"/>
<path d="M16 328H0V344H16V328Z" fill="#E84F76"/>
<path d="M17.3728 347.301L6.0592 358.614L17.3728 369.928L28.6864 358.614L17.3728 347.301Z" fill="#E84F76"/>
<path d="M48 360H32V376H48V360Z" fill="#E84F76"/>
<path d="M62.6155 347.306L51.3019 358.62L62.6155 369.933L73.9291 358.62L62.6155 347.306Z" fill="#E84F76"/>
<path d="M80 328H64V344H80V328Z" fill="#E84F76"/>
<path d="M62.6099 302.06L51.2963 313.374L62.6099 324.688L73.9235 313.374L62.6099 302.06Z" fill="#E84F76"/>
</svg>
