<svg width="30" height="27" viewBox="0 0 30 27" fill="none" xmlns="http://www.w3.org/2000/svg">
<g clip-path="url(#clip0)">
<path d="M15 0C6.71601 0 0 5.87433 0 13.1207C0 20.3671 6.71601 26.2415 15 26.2415C23.284 26.2415 30 20.3671 30 13.1207C30 5.87433 23.284 0 15 0ZM22.6088 14.5398C23.3079 15.1371 24.0476 15.6992 24.6752 16.3583C24.9532 16.6498 25.2153 16.9513 25.4148 17.2904C25.6996 17.7739 25.4425 18.3041 24.9477 18.3328L21.8747 18.3322C21.081 18.3897 20.4494 18.1097 19.9169 17.6351C19.4919 17.2568 19.0975 16.8528 18.6881 16.4616C18.5208 16.3011 18.3447 16.15 18.1347 16.031C17.7158 15.7927 17.3518 15.8657 17.1118 16.2485C16.8672 16.638 16.8114 17.0697 16.788 17.5033C16.7546 18.1371 16.5361 18.3027 15.809 18.3325C14.2554 18.3961 12.7814 18.19 11.4114 17.5049C10.2028 16.9006 9.26731 16.0477 8.45217 15.0821C6.86486 13.1997 5.64921 11.1336 4.55693 9.00827C4.3111 8.52961 4.49095 8.27351 5.09463 8.26358C6.0976 8.24666 7.10056 8.24881 8.10353 8.26277C8.51171 8.26841 8.78179 8.4727 8.93862 8.80961C9.48061 9.97605 10.1451 11.0858 10.9777 12.1151C11.1996 12.3892 11.4261 12.6625 11.7486 12.856C12.1047 13.0697 12.376 12.9991 12.5438 12.6515C12.6513 12.4305 12.6976 12.1943 12.7209 11.9575C12.8007 11.1465 12.8102 10.3358 12.6721 9.528C12.5862 9.0225 12.2612 8.69606 11.6851 8.60049C11.3917 8.5519 11.4347 8.45686 11.5774 8.31029C11.8251 8.05686 12.0571 7.90009 12.5208 7.90009L15.9928 7.89955C16.5401 7.99351 16.6628 8.20827 16.7371 8.69042L16.7402 12.0654C16.7337 12.252 16.8473 12.805 17.2303 12.9272C17.5372 13.0158 17.7397 12.8005 17.9233 12.6305C18.7559 11.8576 19.3492 10.9454 19.8804 10.0013C20.1149 9.58491 20.3171 9.15404 20.5136 8.72236C20.6596 8.40317 20.8868 8.24613 21.2986 8.25149L24.642 8.25498C24.7406 8.25498 24.8406 8.25579 24.9382 8.27056C25.5017 8.35485 25.6561 8.56693 25.4817 9.04773C25.2074 9.80316 24.6743 10.4324 24.1531 11.0633C23.5946 11.7387 22.9989 12.3905 22.4458 13.0689C21.9376 13.689 21.9778 14.0013 22.6088 14.5398Z" fill="#E84F76"/>
</g>
<defs>
<clipPath id="clip0">
<rect width="30" height="26.2415" fill="white"/>
</clipPath>
</defs>
</svg>
