<svg width="30" height="27" viewBox="0 0 30 27" fill="none" xmlns="http://www.w3.org/2000/svg">
<g clip-path="url(#clip0)">
<path d="M13.1317 15.5789L18.011 13.1207L13.1317 10.6626V15.5789Z" fill="#E84F76"/>
<path d="M15 0C6.717 0 0 5.87546 0 13.1207C0 20.366 6.717 26.2415 15 26.2415C23.283 26.2415 30 20.366 30 13.1207C30 5.87546 23.283 0 15 0ZM24.3727 13.1341C24.3727 13.1341 24.3727 15.7951 23.9868 17.0782C23.7705 17.7805 23.1374 18.3343 22.3345 18.5233C20.8676 18.861 15 18.861 15 18.861C15 18.861 9.14772 18.861 7.66548 18.5099C6.86256 18.3209 6.22948 17.7669 6.01318 17.0646C5.62706 15.7951 5.62706 13.1207 5.62706 13.1207C5.62706 13.1207 5.62706 10.46 6.01318 9.17686C6.22925 8.47454 6.8779 7.90715 7.66548 7.71816C9.13239 7.38041 15 7.38041 15 7.38041C15 7.38041 20.8676 7.38041 22.3345 7.73157C23.1374 7.92057 23.7705 8.47454 23.9868 9.17686C24.3883 10.46 24.3727 13.1341 24.3727 13.1341V13.1341Z" fill="#E84F76"/>
</g>
<defs>
<clipPath id="clip0">
<rect width="30" height="26.2415" fill="white"/>
</clipPath>
</defs>
</svg>
